# xmcd
#
# Track frame offsets:
#	150
#	15473
#	30189
#	42229
#	58311
#	69493
#	82153
#	97765
#	115137
#	127408
#	139204
#	152343
#	166933
#	178301
#	193325
#	205226
#	220845
#	234842
#	251425
#	262869
#
# Disc length: 3699 seconds
#
# Revision: 1
# Processed by: cddbd v1.5.2PL0 Copyright (c) Steve Scherf et al.
# Submitted via: audiograbber 1.83.01
#
DISCID=140e7114
DTITLE=shelly west - west by west (1983) red hot (1983)
DYEAR=2016
DGENRE=country
TTITLE0=Flight 309 To Tennessee
TTITLE1=Someone's Been Sleeping In Our Bed
TTITLE2=Jose Cuervo
TTITLE3=Our Love
TTITLE4=Me On The One Side
TTITLE5=Don't Let Her Hurt You
TTITLE6=Sexy Song
TTITLE7=As Me No Questions (Promise Me No Ties)
TTITLE8=When He Kisses Me
TTITLE9=I'll Still Be Loving You
TTITLE10=Good And Lonesome
TTITLE11=Now I Lay Me Down To Cheat
TTITLE12=Somebody Buy This Cowgirl A Beer
TTITLE13=again
TTITLE14=Another Motel Memory
TTITLE15=small talk
TTITLE16=Love Me Again
TTITLE17=Suite Sixteen
TTITLE18=Let's Make A Little Love Tonight
TTITLE19=Dance Away
EXTD=
EXTT0=
EXTT1=
EXTT2=
EXTT3=
EXTT4=
EXTT5=
EXTT6=
EXTT7=
EXTT8=
EXTT9=
EXTT10=
EXTT11=
EXTT12=
EXTT13=
EXTT14=
EXTT15=
EXTT16=
EXTT17=
EXTT18=
EXTT19=
PLAYORDER=
